{"glyphs":{":":{"x_min":0,"x_max":282,"ha":282,"o":"m 32 95 q 32 138 63 170 q 94 202 139 202 q 184 202 217 170 q 250 139 250 94 q 250 49 218 18 q 185 -14 139 -14 q 93 -14 62 16 q 32 47 32 95 z m 34 426 q 34 447 42 466 q 49 485 65 502 q 97 534 142 534 q 184 534 216 502 q 249 471 249 425 q 249 379 218 348 q 186 317 142 317 q 97 317 66 349 q 34 381 34 426 z"},"$":{"x_min":0,"x_max":578,"ha":578,"o":"m 254 -154 l 254 -17 l 306 -17 l 306 -154 z m 255 116 l 255 0 l 161 0 q 121 0 108 4 q 95 7 77 22 q 36 55 36 105 q 36 157 81 192 q 111 216 148 216 q 189 216 220 187 q 255 152 255 116 z m 202 720 l 255 720 l 255 192 l 68 417 q 57 432 49 444 q 41 456 35 470 q 25 491 21 512 q 17 532 17 552 q 17 616 58 662 q 99 707 168 717 z m 305 608 q 305 580 327 551 q 357 510 410 510 q 428 510 442 515 q 484 529 505 570 l 514 597 q 516 605 516 620 q 516 662 487 691 q 458 720 415 720 l 305 720 z m 256 736 l 256 856 l 309 856 l 309 736 z m 306 0 l 306 533 l 497 307 q 528 268 543 222 q 547 211 550 192 q 553 174 553 163 q 553 95 504 48 q 454 0 376 0 z"},"?":{"x_min":0,"x_max":492,"ha":492,"o":"m 141 95 q 141 139 172 170 q 202 202 247 202 q 293 202 326 170 q 359 139 359 93 q 359 49 326 18 q 294 -14 248 -14 q 203 -14 172 18 q 141 50 141 95 z m 195 710 q 228 721 261 721 q 269 721 278 720 q 287 718 296 717 q 358 705 401 661 q 444 617 461 541 q 468 516 468 484 q 468 474 468 465 q 466 456 466 453 q 454 355 393 298 q 332 240 247 240 l 247 613 q 247 646 226 678 q 225 680 210 693 q 196 706 195 710 z m 11 589 q 10 594 10 604 q 10 646 38 676 q 66 706 108 706 q 152 706 183 676 q 214 646 214 601 q 214 549 172 517 q 145 496 112 496 q 84 496 60 510 q 36 525 23 552 q 14 568 11 589 z"},"'":{"x_min":0,"x_max":224,"ha":224,"o":"m 29 468 l 51 720 l 195 720 l 173 468 z"},"a":{"x_min":0,"x_max":532,"ha":532,"o":"m 185 283 l 242 283 l 242 0 l 181 0 l 162 1 q 91 9 54 43 q 17 77 17 136 q 17 153 18 160 q 19 167 22 181 q 33 228 74 256 q 115 283 185 283 z m 240 506 l 281 515 q 306 519 333 519 q 415 519 459 477 q 503 435 503 362 l 503 0 l 293 0 l 293 417 q 293 440 284 460 q 269 492 240 506 z m 92 492 q 121 515 158 515 q 200 515 230 486 q 261 457 261 413 q 261 373 234 343 q 201 306 152 306 q 123 306 100 320 q 77 335 66 364 q 55 393 55 414 q 55 440 65 460 q 75 479 92 492 z"},"L":{"x_min":0,"x_max":531,"ha":531,"o":"m 17 0 l 17 720 l 277 720 l 277 0 z m 290 0 l 515 349 l 515 0 z"},"3":{"x_min":0,"x_max":570,"ha":570,"o":"m 198 341 l 198 383 l 217 384 q 240 384 250 388 q 259 391 271 402 q 293 421 293 456 l 293 612 q 293 635 286 650 q 279 664 257 685 l 250 691 l 286 696 q 388 696 450 650 q 513 604 513 535 q 513 500 500 471 q 483 432 450 410 q 418 389 352 374 l 303 363 l 358 355 q 425 345 460 326 q 494 307 518 266 q 541 224 541 179 q 541 121 502 74 q 463 28 394 8 q 367 0 344 -2 q 322 -4 312 -4 q 302 -4 297 -4 q 286 -4 276 -4 q 266 -3 238 1 l 246 6 q 271 23 282 40 q 292 56 292 77 l 292 283 q 292 334 225 340 q 216 342 214 341 z m 155 691 q 199 691 231 659 q 263 627 263 583 q 263 539 232 508 q 200 476 155 476 q 111 476 79 507 q 47 538 47 583 q 47 627 79 659 q 111 691 155 691 z m 140 225 q 186 225 218 194 q 251 162 251 117 q 251 69 219 35 q 187 1 139 1 q 91 1 59 35 q 27 69 27 117 q 27 163 60 194 q 93 225 140 225 z"},";":{"x_min":0,"x_max":282,"ha":282,"o":"m 18 -143 l 103 -6 q 72 6 54 32 q 42 47 37 63 q 32 79 32 96 q 32 139 63 171 q 94 203 141 203 q 186 203 218 171 q 250 139 250 95 q 250 86 248 76 q 247 66 244 56 q 240 46 234 36 l 122 -143 z m 34 426 q 34 472 66 502 q 98 534 142 534 q 184 534 217 502 q 250 471 250 424 q 250 380 219 348 q 188 317 142 317 q 96 317 65 350 q 34 382 34 426 z"},"J":{"x_min":0,"x_max":568,"ha":568,"o":"m 227 1 l 241 10 q 267 31 278 58 q 289 86 289 138 l 289 720 l 550 720 l 550 266 q 550 133 476 66 q 402 -2 260 -2 z m 20 124 q 20 164 39 197 q 58 230 91 244 q 101 249 114 251 q 126 253 136 253 q 172 253 202 232 q 231 210 247 173 q 251 165 253 154 q 255 142 255 131 q 255 104 247 80 q 239 57 228 43 q 213 22 189 11 q 165 0 139 0 q 94 0 62 31 q 20 70 20 124 z"},"V":{"x_min":0,"x_max":684,"ha":684,"o":"m 18 720 l 285 720 l 465 140 l 420 0 l 242 0 z m 337 720 l 655 720 l 492 220 z"},"\"":{"x_min":0,"x_max":426,"ha":426,"o":"m 29 468 l 51 720 l 195 720 l 173 468 z m 231 468 l 253 720 l 397 720 l 375 468 z"},"7":{"x_min":0,"x_max":536,"ha":536,"o":"m 23 0 l 511 494 l 329 0 z m 31 499 l 31 680 l 513 680 l 513 499 z"},"S":{"x_min":0,"x_max":539,"ha":539,"o":"m 26 0 l 26 355 l 302 0 z m 165 720 l 234 720 q 209 707 209 679 q 209 659 224 633 l 230 624 l 478 310 q 533 241 533 172 q 533 140 521 110 q 502 60 462 30 q 423 0 381 0 l 312 0 l 322 10 q 338 29 338 46 q 338 61 324 84 l 318 93 l 52 428 q 46 436 41 443 q 36 450 31 462 q 8 507 8 555 q 8 590 22 623 q 66 720 165 720 z m 244 720 l 507 720 l 507 393 z"},"}":{"x_min":0,"x_max":367,"ha":367,"o":"m 29 -122 l 29 -36 l 42 -36 q 72 -36 85 -25 q 98 -14 98 12 l 98 266 q 98 295 115 318 q 132 342 161 354 l 187 360 l 161 366 q 132 378 115 402 q 98 425 98 454 l 98 708 q 98 734 86 745 q 74 756 42 756 l 29 756 l 29 842 l 172 842 q 219 842 245 816 q 271 790 271 742 l 271 432 q 271 401 290 380 q 310 360 338 360 q 310 360 290 340 q 271 319 271 288 l 271 -22 q 271 -70 245 -96 q 219 -122 172 -122 z"},"Z":{"x_min":0,"x_max":678,"ha":678,"o":"m 96 250 l 96 719 l 359 719 z m 11 -1 l 417 719 l 705 719 l 312 -1 z m 369 -1 l 645 497 l 645 -1 z"},"x":{"x_min":0,"x_max":556,"ha":556,"o":"m 10 0 l 130 211 l 246 0 z m 252 518 l 537 0 l 318 0 l 26 518 z m 312 518 l 536 518 l 422 319 z"},")":{"x_min":0,"x_max":264,"ha":264,"o":"m 43 -112 l 43 830 q 66 802 89 775 q 139 710 159 673 q 246 506 246 359 q 246 210 159 45 q 112 -43 43 -112 z"},"&":{"x_min":0,"x_max":750,"ha":750,"o":"m 109 382 q 109 376 117 350 q 122 333 125 329 l 369 0 l 242 0 q 152 0 102 33 q 52 66 26 143 q 18 166 18 197 q 18 238 36 280 q 53 321 90 362 z m 248 659 l 253 647 l 262 625 l 555 237 l 695 340 l 695 245 l 600 177 l 732 0 l 433 0 l 184 327 q 131 397 131 467 q 131 538 187 606 q 214 637 248 659 z m 287 673 l 319 690 q 365 709 406 709 q 476 709 520 668 q 565 628 565 568 q 565 540 555 513 q 545 486 532 466 q 511 434 485 413 z"},"_":{"x_min":0,"x_max":418,"ha":418,"o":"m 29 -43 l 29 0 l 389 0 l 389 -43 z"},"v":{"x_min":0,"x_max":564,"ha":564,"o":"m 12 512 l 235 512 l 385 127 l 332 -6 l 204 -6 z m 288 512 l 531 512 l 409 194 z"},"O":{"x_min":0,"x_max":692,"ha":692,"o":"m 302 733 q 314 733 321 735 l 321 -8 q 288 -8 262 -4 q 235 -1 209 8 q 125 41 72 131 q 16 227 16 357 q 16 435 38 522 q 61 608 121 663 q 181 718 269 732 q 273 733 281 733 q 291 733 302 733 z m 371 -9 l 371 735 q 384 735 396 735 q 409 735 423 732 q 511 718 570 664 q 630 609 653 522 q 676 435 676 354 q 676 227 620 131 q 568 42 483 8 q 457 -2 432 -6 q 406 -9 371 -9 z"},"(":{"x_min":0,"x_max":264,"ha":264,"o":"m 221 830 l 221 -112 q 152 -43 105 45 q 18 210 18 359 q 18 508 105 673 q 166 786 177 803 q 204 846 215 846 q 221 846 221 830 z"},"C":{"x_min":0,"x_max":593,"ha":593,"o":"m 324 719 l 324 0 q 298 0 245 19 q 154 52 98 119 q 18 215 18 366 q 18 529 107 626 q 192 719 324 719 z m 330 0 l 570 276 l 570 0 z m 332 720 l 571 720 l 571 449 z"},"W":{"x_min":0,"x_max":924,"ha":924,"o":"m 18 720 l 280 720 l 423 154 l 382 0 l 203 0 z m 334 720 l 595 720 l 737 147 l 698 0 l 515 0 z m 649 720 l 896 720 l 766 253 z"},"A":{"x_min":0,"x_max":660,"ha":660,"o":"m 31 -6 l 190 597 l 253 302 l 306 302 l 221 714 l 489 714 l 637 -6 l 369 -6 l 319 241 l 265 241 l 315 -6 z"},"f":{"x_min":0,"x_max":396,"ha":396,"o":"m 16 453 l 16 518 l 69 518 l 69 582 q 69 609 84 642 q 112 704 176 726 l 190 730 q 158 696 158 643 q 158 625 160 615 q 168 570 202 544 q 236 518 291 518 l 364 518 l 364 454 l 284 454 l 284 0 l 71 0 l 71 453 z m 193 645 q 193 685 221 713 q 249 741 288 741 q 327 741 355 713 q 383 685 383 646 q 383 607 355 579 q 327 551 288 551 q 248 551 220 580 q 193 608 193 645 z"},"Q":{"x_min":0,"x_max":692,"ha":692,"o":"m 371 -173 l 371 735 q 384 735 396 735 q 409 735 423 732 q 528 715 590 644 q 652 572 669 441 q 673 406 674 392 q 674 379 674 365 q 674 323 668 282 q 650 163 596 93 q 541 23 453 -2 q 439 -3 432 -3 q 427 -5 423 -8 l 595 -173 z m 321 735 l 321 -8 q 288 -8 262 -4 q 235 -1 209 8 q 125 41 72 131 q 16 227 16 357 q 16 435 38 522 q 61 608 121 663 q 181 718 269 732 q 289 735 308 735 q 317 735 321 735 z"},"w":{"x_min":0,"x_max":804,"ha":804,"o":"m 12 518 l 232 518 l 351 165 l 289 0 l 186 0 z m 286 518 l 508 518 l 639 157 l 580 0 l 460 0 z m 560 518 l 778 518 l 664 218 z"},"-":{"x_min":0,"x_max":326,"ha":326,"o":"m 25 179 l 25 338 l 301 338 l 301 179 z"},"E":{"x_min":0,"x_max":593,"ha":593,"o":"m 23 0 l 23 720 l 292 720 l 292 0 z m 300 0 l 565 322 l 565 0 z m 303 368 l 464 528 l 464 215 z m 305 720 l 563 720 l 563 431 z"},"s":{"x_min":0,"x_max":444,"ha":444,"o":"m 23 0 l 23 227 l 235 0 z m 165 518 l 160 509 q 153 495 153 483 q 153 469 165 457 l 381 231 l 395 215 q 414 190 423 164 q 432 138 432 113 q 432 72 410 42 q 388 11 348 0 l 250 0 l 255 8 q 264 23 264 32 q 264 42 246 62 l 75 245 q 16 308 16 369 q 16 387 18 396 q 27 448 61 480 q 95 512 145 517 z m 178 518 l 400 518 l 400 285 z"},"l":{"x_min":0,"x_max":268,"ha":268,"o":"m 29 0 l 29 720 l 239 720 l 239 0 z"},"8":{"x_min":0,"x_max":594,"ha":594,"o":"m 269 353 l 269 -6 q 269 -11 257 -8 q 245 -6 243 -6 q 138 -6 82 43 q 25 92 25 174 q 25 258 77 304 q 133 354 242 354 q 255 353 269 353 z m 321 -6 l 321 353 q 321 358 330 356 q 339 355 348 354 q 457 354 511 306 q 565 258 565 174 q 565 92 508 43 q 452 -6 347 -6 z m 268 689 l 268 377 q 241 379 214 381 q 186 383 174 386 q 122 399 90 438 q 59 478 59 529 q 59 567 80 606 q 102 645 139 665 q 181 688 249 688 q 258 688 268 689 z m 321 377 l 321 689 q 321 694 329 692 q 337 691 342 690 q 411 690 451 667 q 485 648 509 605 q 530 567 530 528 q 530 478 499 438 q 468 399 415 386 q 413 385 348 380 q 339 380 321 377 z"},"\\":{"x_min":0,"x_max":328,"ha":328,"o":"m 29 720 l 173 720 l 299 0 l 155 0 z"},"e":{"x_min":0,"x_max":512,"ha":512,"o":"m 245 518 l 245 51 q 263 48 281 48 q 383 48 463 162 l 476 183 l 476 91 q 458 66 428 43 q 357 -12 273 -12 q 244 -12 209 -4 q 130 16 86 61 q 43 106 25 188 q 22 203 20 223 q 17 243 17 267 q 17 310 27 352 q 37 395 63 432 q 103 489 178 509 q 203 515 245 518 z m 297 262 l 297 519 q 303 520 314 520 q 391 520 442 460 q 494 399 494 297 q 494 284 494 276 q 494 268 493 262 z"},"b":{"x_min":0,"x_max":548,"ha":548,"o":"m 29 0 l 29 720 l 238 720 l 238 0 z m 290 0 l 290 517 q 299 519 310 519 q 321 519 327 519 q 530 519 530 262 q 530 134 482 72 q 434 10 332 0 q 318 -2 311 -2 q 304 -2 290 0 z"},"%":{"x_min":0,"x_max":882,"ha":882,"o":"m 182 0 l 623 720 l 697 720 l 255 0 z m 199 726 l 199 327 q 156 327 119 344 q 82 361 54 398 q 36 423 27 452 q 18 481 18 521 q 18 607 58 660 q 99 714 169 724 q 182 727 188 727 q 196 728 199 726 z m 248 326 l 248 726 q 248 731 257 729 q 266 727 278 724 q 346 714 388 660 q 429 606 429 521 q 429 447 393 398 q 337 324 268 324 q 262 324 248 326 z m 635 398 l 635 0 q 635 -7 624 -4 q 614 -1 604 1 q 537 10 496 62 q 455 114 455 196 q 455 205 455 214 q 457 227 457 233 q 465 301 504 344 q 544 388 606 397 z m 684 0 l 684 398 q 692 398 695 398 q 707 398 713 397 q 776 388 814 346 q 853 304 862 233 q 863 220 864 210 q 864 201 864 195 q 864 114 823 62 q 782 10 715 1 q 705 0 700 0 q 691 -1 684 0 z"},"m":{"x_min":0,"x_max":787,"ha":787,"o":"m 23 0 l 23 518 l 231 518 l 231 0 z m 283 0 l 283 518 l 491 518 l 491 0 z m 541 0 l 541 518 l 597 518 q 677 518 714 480 q 752 441 752 356 l 752 0 z"},",":{"x_min":0,"x_max":268,"ha":268,"o":"m 4 -143 l 89 -6 q 74 0 55 18 q 33 40 25 60 q 17 79 17 99 q 17 142 48 172 q 80 203 127 203 q 172 203 204 171 q 236 139 236 95 q 236 86 234 76 q 233 66 230 56 q 226 46 220 36 l 108 -143 z"},"n":{"x_min":0,"x_max":516,"ha":516,"o":"m 24 0 l 24 518 l 233 518 l 233 0 z m 283 0 l 283 518 l 350 518 q 415 518 454 482 q 492 445 492 381 l 492 0 z"},"h":{"x_min":0,"x_max":516,"ha":516,"o":"m 23 0 l 23 720 l 231 720 l 231 0 z m 281 0 l 281 518 l 330 518 q 380 518 407 508 q 434 498 456 473 q 474 453 482 427 q 489 401 489 359 l 489 0 z"},"z":{"x_min":0,"x_max":572,"ha":572,"o":"m 56 196 l 56 518 l 248 518 z m 1 0 l 306 518 l 551 518 l 245 0 z m 302 0 l 517 356 l 517 0 z"},"B":{"x_min":0,"x_max":598,"ha":598,"o":"m 23 0 l 23 720 l 284 720 l 284 0 z m 334 1 l 334 720 q 344 722 355 722 q 366 722 372 722 q 451 722 496 696 q 542 671 565 620 q 580 587 580 554 q 580 524 568 495 q 552 455 515 429 q 478 403 414 390 q 394 385 376 385 q 395 385 418 380 q 493 363 536 312 q 578 262 578 193 q 578 175 575 155 q 562 81 517 43 q 466 1 374 1 z"},"K":{"x_min":0,"x_max":684,"ha":684,"o":"m 25 0 l 25 720 l 285 720 l 285 0 z m 336 0 l 336 720 l 663 720 l 354 396 l 662 0 z"},"R":{"x_min":0,"x_max":672,"ha":672,"o":"m 23 0 l 23 720 l 282 720 l 282 0 z m 333 0 l 333 722 q 333 728 342 728 q 348 728 360 726 q 373 723 374 723 q 474 723 531 683 q 583 646 597 576 q 599 566 600 554 q 601 542 601 531 q 601 450 544 404 q 488 357 387 357 l 355 361 l 646 0 z"},"T":{"x_min":0,"x_max":636,"ha":636,"o":"m 10 394 l 10 720 l 176 720 z m 451 720 l 617 720 l 617 394 z m 184 0 l 184 720 l 444 720 l 444 0 z"},"P":{"x_min":0,"x_max":622,"ha":622,"o":"m 334 295 l 334 720 l 392 720 l 427 720 q 522 720 571 665 q 620 610 620 503 q 620 403 566 349 q 512 295 412 295 l 380 295 z m 283 720 l 283 0 l 23 0 l 23 720 z"},"t":{"x_min":0,"x_max":348,"ha":348,"o":"m -6 455 l 265 731 l 265 518 l 323 518 l 323 454 l 264 454 l 264 0 l 55 0 l 55 455 z"},"M":{"x_min":0,"x_max":936,"ha":936,"o":"m 25 0 l 154 472 l 275 0 z m 182 577 l 220 720 l 407 720 l 586 0 l 327 0 z m 495 569 l 533 720 l 720 720 l 899 0 l 641 0 z"},"g":{"x_min":0,"x_max":557,"ha":557,"o":"m 275 -195 q 287 -185 296 -171 q 318 -139 318 -88 l 318 518 l 528 518 l 528 6 q 528 -91 472 -145 q 416 -199 312 -199 q 301 -199 292 -198 q 284 -196 275 -195 z m 270 519 l 270 32 l 239 32 q 140 32 88 80 q 36 127 22 227 q 17 260 17 285 q 17 391 78 456 q 138 520 238 520 z m 58 -98 q 57 -91 57 -87 q 57 -51 76 -24 q 94 3 125 14 q 146 21 167 21 q 212 21 242 -10 q 272 -41 272 -90 q 272 -139 242 -170 q 213 -202 167 -202 q 146 -202 126 -195 q 97 -185 78 -159 q 58 -133 58 -98 z"},"j":{"x_min":0,"x_max":258,"ha":258,"o":"m 22 -198 l 22 518 l 226 518 l 226 7 q 226 -82 182 -136 q 139 -189 57 -197 q 51 -198 40 -198 q 28 -198 22 -198 z m 20 629 q 20 669 48 698 q 77 726 125 726 q 172 726 201 700 q 230 674 230 636 q 230 598 204 570 q 177 543 134 543 q 85 543 52 567 q 20 591 20 629 z"},"i":{"x_min":0,"x_max":269,"ha":269,"o":"m 23 0 l 23 518 l 227 518 l 227 0 z m 20 629 q 20 669 48 698 q 77 726 125 726 q 172 726 201 700 q 230 674 230 636 q 230 598 204 570 q 177 543 134 543 q 85 543 52 567 q 20 591 20 629 z"},"y":{"x_min":0,"x_max":612,"ha":612,"o":"m 18 518 l 248 518 l 410 135 l 410 -202 l 201 -202 l 201 87 z m 303 518 l 589 518 l 446 184 z"},".":{"x_min":0,"x_max":264,"ha":264,"o":"m 124 202 q 169 202 201 171 q 233 140 233 95 q 233 50 202 18 q 171 -14 126 -14 q 81 -14 49 17 q 17 48 17 93 q 17 138 48 170 q 79 202 124 202 z"},"p":{"x_min":0,"x_max":547,"ha":547,"o":"m 23 -202 l 23 518 l 234 518 l 234 -202 z m 285 0 l 285 518 l 303 519 q 410 519 466 457 q 523 395 523 269 q 523 256 523 249 q 523 241 523 233 q 521 221 521 215 q 511 103 460 52 q 410 0 308 0 z"},"X":{"x_min":0,"x_max":648,"ha":648,"o":"m 25 -2 l 155 295 l 280 -2 z m 29 718 l 307 718 l 608 -2 l 336 -2 z m 359 718 l 618 718 l 487 422 z"},"*":{"x_min":0,"x_max":443,"ha":443,"o":"m 25 636 l 149 636 l 217 762 l 294 640 l 410 640 l 354 537 l 418 426 l 289 426 l 221 312 l 152 421 l 35 421 l 89 525 z"},"Y":{"x_min":0,"x_max":684,"ha":684,"o":"m 18 720 l 297 720 l 474 322 l 474 0 l 215 0 l 215 282 z m 351 720 l 645 720 l 502 386 z"},"c":{"x_min":0,"x_max":501,"ha":501,"o":"m 253 517 l 253 61 q 270 58 287 58 q 394 58 472 170 q 479 184 481 189 q 482 190 484 191 l 484 94 q 438 40 365 16 q 314 0 268 0 q 222 0 179 17 q 119 41 80 90 q 40 138 25 209 q 18 238 18 271 q 18 295 23 323 q 39 410 92 463 q 145 516 224 516 q 230 518 240 518 q 248 518 253 517 z m 265 518 l 487 518 l 487 282 z"},"!":{"x_min":0,"x_max":291,"ha":291,"o":"m 33 95 q 33 139 64 170 q 96 202 140 202 q 186 202 219 170 q 252 139 252 94 q 252 49 219 18 q 186 -14 140 -14 q 95 -14 64 17 q 33 48 33 95 z m 32 720 l 259 720 l 145 219 z"},"/":{"x_min":0,"x_max":514,"ha":514,"o":"m 4 0 l 433 720 l 510 720 l 77 0 z"},"[":{"x_min":0,"x_max":287,"ha":287,"o":"m 32 -106 l 32 826 l 276 826 l 276 720 l 222 720 l 222 0 l 276 0 l 276 -106 z"},"6":{"x_min":0,"x_max":627,"ha":627,"o":"m 340 687 l 332 679 q 295 643 295 597 l 295 0 q 261 4 227 8 q 149 30 100 86 q 31 163 31 291 q 31 466 112 580 q 190 690 305 690 q 322 690 340 687 z m 345 0 q 354 0 364 0 q 374 0 384 1 q 475 10 529 56 q 583 103 594 179 q 597 203 597 225 q 597 320 539 380 q 481 440 379 440 l 345 440 z m 336 570 q 336 608 354 639 q 371 670 404 683 q 427 692 449 692 q 484 692 512 672 q 541 652 551 619 q 555 609 556 600 q 557 590 557 576 q 557 532 526 500 q 495 468 451 468 q 404 468 370 497 q 336 526 336 570 z"},"r":{"x_min":0,"x_max":473,"ha":473,"o":"m 29 0 l 29 518 l 238 518 l 238 0 z m 350 524 q 394 524 426 496 q 458 468 458 426 q 458 382 430 350 q 402 318 360 318 q 316 318 284 346 q 252 374 252 416 q 252 460 280 492 q 308 524 350 524 z"},"2":{"x_min":0,"x_max":564,"ha":564,"o":"m 74 0 l 74 188 l 542 188 l 542 0 z m 244 688 q 256 690 269 692 q 282 694 293 694 q 386 694 450 650 q 515 605 539 523 q 549 490 549 454 q 549 362 485 293 q 421 224 320 214 q 314 213 308 213 q 300 213 296 213 q 278 213 258 216 l 268 221 q 288 232 296 250 q 305 267 311 308 l 312 323 l 312 562 l 311 580 q 306 623 296 640 q 287 657 253 682 q 248 685 244 688 z m 31 539 q 30 544 30 555 q 30 607 66 644 q 101 680 153 680 q 206 680 242 644 q 277 607 277 554 q 277 499 237 461 q 202 427 153 427 q 82 427 47 491 q 34 512 31 539 z"},"{":{"x_min":0,"x_max":367,"ha":367,"o":"m 29 360 q 58 360 77 380 q 96 400 96 432 l 96 742 q 96 790 122 816 q 148 842 195 842 l 338 842 l 338 756 l 325 756 q 269 756 269 708 l 269 454 q 269 390 207 366 l 180 360 l 207 354 q 235 343 252 319 q 269 295 269 266 l 269 12 q 269 -36 325 -36 l 338 -36 l 338 -122 l 195 -122 q 150 -122 123 -96 q 96 -70 96 -22 l 96 288 q 96 318 77 339 q 58 360 29 360 z"},"9":{"x_min":0,"x_max":612,"ha":612,"o":"m 274 5 l 283 13 q 320 50 320 95 l 320 692 q 359 692 382 687 q 455 671 504 618 q 574 543 587 404 q 589 390 589 378 q 589 365 589 352 q 589 199 504 98 q 423 2 310 2 q 292 2 274 5 z m 270 692 l 270 252 l 236 252 q 134 252 76 312 q 18 372 18 468 q 18 490 21 513 q 32 592 85 639 q 144 691 237 691 q 251 694 260 694 q 264 694 270 692 z m 58 116 q 58 161 89 192 q 120 223 164 223 q 213 223 246 191 q 279 159 279 113 q 279 91 272 73 q 256 26 210 9 q 187 0 165 0 q 130 0 102 20 q 75 39 64 72 q 60 83 59 92 q 58 102 58 116 z"}," ":{"x_min":0,"x_max":290,"ha":290,"o":""},"I":{"x_min":0,"x_max":310,"ha":310,"o":"m 29 0 l 29 720 l 288 720 l 288 0 z"},"H":{"x_min":0,"x_max":618,"ha":618,"o":"m 23 0 l 23 720 l 282 720 l 282 416 l 334 416 l 334 720 l 594 720 l 594 0 l 335 0 l 335 353 l 282 353 l 282 0 z"},"4":{"x_min":0,"x_max":720,"ha":720,"o":"m 372 0 l 372 683 l 624 683 l 624 224 l 689 224 l 689 162 l 624 162 l 624 0 z m 23 164 l 321 681 l 321 164 z"},"~":{"x_min":0,"x_max":519,"ha":519,"o":"m 29 265 l 30 293 q 38 377 74 420 q 109 463 165 463 q 192 463 229 450 l 314 418 l 334 411 q 343 407 352 407 q 370 407 380 438 l 384 455 l 385 464 l 490 464 l 488 437 q 481 353 446 310 q 411 267 354 267 q 336 267 320 270 q 305 274 289 280 l 205 311 l 184 319 q 172 323 168 323 q 149 323 139 292 q 135 282 135 275 l 134 265 z"},"D":{"x_min":0,"x_max":663,"ha":663,"o":"m 23 0 l 23 720 l 283 720 l 283 0 z m 333 0 l 333 720 q 341 720 350 721 q 360 722 365 722 q 485 722 560 626 q 639 525 639 351 q 639 188 558 91 q 481 -1 360 -1 q 349 -1 343 -1 q 336 0 333 0 z"},"^":{"x_min":0,"x_max":525,"ha":525,"o":"m 29 149 l 262 571 l 496 149 l 332 149 l 262 295 l 193 149 z"},"0":{"x_min":0,"x_max":626,"ha":626,"o":"m 287 692 l 287 0 q 287 -6 280 -6 q 274 -6 258 0 q 241 6 239 6 q 148 27 92 96 q 33 168 22 275 q 18 311 18 351 q 18 495 78 580 q 138 665 246 687 q 257 689 268 691 q 280 693 287 692 z m 339 0 l 339 692 q 358 692 380 687 q 488 666 548 580 q 609 493 609 348 q 609 330 609 313 q 606 287 605 275 q 594 169 536 98 q 478 27 387 6 z"},"F":{"x_min":0,"x_max":569,"ha":569,"o":"m 23 0 l 23 720 l 283 720 l 283 0 z m 295 370 l 465 519 l 465 217 z m 304 720 l 559 720 l 559 427 z"},"`":{"x_min":0,"x_max":213,"ha":213,"o":"m -67 759 l 122 759 l 122 562 z"},"k":{"x_min":0,"x_max":594,"ha":594,"o":"m 23 -6 l 23 714 l 233 714 l 233 -6 z m 284 -6 l 284 512 l 536 512 l 324 266 l 569 -6 z"},"u":{"x_min":0,"x_max":516,"ha":516,"o":"m 17 166 l 17 518 l 226 518 l 226 0 q 226 -3 222 -3 q 210 1 207 1 q 107 1 62 42 q 17 83 17 166 z m 278 0 l 278 518 l 486 518 l 486 166 q 486 83 441 42 q 396 1 296 1 z"},"]":{"x_min":0,"x_max":287,"ha":287,"o":"m 11 -106 l 11 0 l 64 0 l 64 720 l 11 720 l 11 826 l 255 826 l 255 -106 z"},"U":{"x_min":0,"x_max":630,"ha":630,"o":"m 29 251 l 29 720 l 291 720 l 291 -5 q 280 -5 266 -4 q 253 -4 246 -3 q 131 10 80 70 q 29 129 29 251 z m 340 -6 l 340 720 l 601 720 l 601 251 q 601 128 550 68 q 499 8 384 -5 q 376 -6 364 -6 q 351 -6 340 -6 z"},"o":{"x_min":0,"x_max":560,"ha":560,"o":"m 255 525 l 255 0 q 255 -5 248 -4 q 227 2 221 3 q 128 18 72 84 q 16 149 16 252 q 16 285 24 327 q 40 410 91 461 q 142 512 215 523 q 224 524 234 524 q 245 525 255 525 z m 305 0 l 305 525 q 314 525 323 525 q 332 525 344 523 q 418 512 468 461 q 519 410 535 327 q 543 284 543 249 q 543 147 487 82 q 431 17 338 3 z"},"N":{"x_min":0,"x_max":608,"ha":608,"o":"m 30 0 l 30 529 l 264 0 z m 29 667 l 29 720 l 295 720 l 578 55 l 578 0 l 317 0 z m 345 720 l 579 720 l 579 185 z"},"G":{"x_min":0,"x_max":658,"ha":658,"o":"m 323 722 l 323 -12 q 317 -12 306 -12 q 294 -11 278 -8 q 157 11 89 98 q 18 189 18 339 q 18 509 82 605 q 146 701 266 719 q 274 720 285 721 q 296 722 304 722 q 315 722 323 722 z m 373 -10 l 373 347 l 643 347 l 644 320 q 644 166 586 84 q 527 2 417 -10 z m 334 720 l 597 720 l 597 437 z"},"q":{"x_min":0,"x_max":547,"ha":547,"o":"m 307 -202 l 307 518 l 518 518 l 518 -202 z m 256 518 l 256 0 l 233 0 q 128 0 74 52 q 20 105 20 215 q 20 372 71 446 q 122 519 238 519 z"},"d":{"x_min":0,"x_max":545,"ha":545,"o":"m 256 517 l 256 0 q 256 -5 249 -5 q 243 -5 233 -2 q 223 0 222 0 q 122 0 70 62 q 17 124 17 249 q 17 276 19 292 q 21 308 21 317 q 31 415 80 466 q 130 518 220 518 q 233 518 242 518 q 250 518 256 517 z m 308 0 l 308 720 l 516 720 l 516 0 z"},"1":{"x_min":0,"x_max":498,"ha":498,"o":"m 32 0 l 32 189 l 125 189 l 125 501 l 33 453 l 33 512 l 378 712 l 378 190 l 473 190 l 473 0 z"},"5":{"x_min":0,"x_max":552,"ha":552,"o":"m 163 392 l 163 441 l 181 444 q 196 446 215 447 q 234 448 249 448 q 294 448 337 438 q 422 418 462 378 q 503 338 514 265 q 517 245 517 225 q 517 132 452 66 q 387 0 282 0 q 271 -1 265 -1 q 245 0 236 0 l 243 8 q 265 34 272 50 q 279 66 279 88 l 279 323 q 279 352 262 375 q 244 398 217 398 q 205 398 191 392 z m 62 392 l 62 684 l 481 684 l 481 494 l 124 494 l 124 392 z m 21 106 q 21 141 41 171 q 61 201 94 213 q 114 220 134 220 q 178 220 210 188 q 241 155 241 107 q 241 65 214 35 q 182 -4 131 -4 q 86 -4 55 27 q 21 61 21 106 z"}}}
